<svg xmlns="http://www.w3.org/2000/svg" width="27" height="27" viewBox="0 0 27 27" fill="none">
  <path d="M13.5 23.625C13.356 23.6264 13.2142 23.5901 13.0887 23.5195C12.6352 23.2664 2.10938 17.2863 2.10938 9.70312C2.10938 8.37496 2.52727 7.08047 3.30386 6.00301C4.08045 4.92554 5.17637 4.11974 6.43637 3.69974C7.69638 3.27974 9.05659 3.26683 10.3243 3.66284C11.5921 4.05886 12.7031 4.84372 13.5 5.90625C14.2969 4.84372 15.4079 4.05886 16.6757 3.66284C17.9434 3.26683 19.3036 3.27974 20.5636 3.69974C21.8236 4.11974 22.9196 4.92554 23.6961 6.00301C24.4727 7.08047 24.8906 8.37496 24.8906 9.70312C24.8906 12.9305 23.0238 16.2422 19.343 19.5539C17.6715 21.0565 15.8516 22.3852 13.9113 23.5195C13.7858 23.5901 13.644 23.6264 13.5 23.625ZM8.4375 5.0625C7.20673 5.0625 6.02637 5.55142 5.15608 6.42171C4.2858 7.29199 3.79688 8.47235 3.79688 9.70312C3.79688 15.525 11.6016 20.6402 13.5 21.8004C15.3984 20.6402 23.2031 15.525 23.2031 9.70312C23.2041 8.63032 22.8334 7.59032 22.154 6.76006C21.4746 5.9298 20.5285 5.36057 19.4767 5.14922C18.425 4.93787 17.3324 5.09745 16.3851 5.60082C15.4377 6.10419 14.694 6.92025 14.2805 7.91016C14.2169 8.06491 14.1088 8.19727 13.9698 8.29042C13.8308 8.38357 13.6673 8.43331 13.5 8.43331C13.3327 8.43331 13.1692 8.38357 13.0302 8.29042C12.8912 8.19727 12.7831 8.06491 12.7195 7.91016C12.3683 7.06458 11.7738 6.34243 11.0114 5.83541C10.249 5.32839 9.3531 5.05937 8.4375 5.0625Z" fill="black"/>
</svg>